G75*
G70*
%OFA0B0*%
%FSLAX24Y24*%
%IPPOS*%
%LPD*%
%AMOC8*
5,1,8,0,0,1.08239X$1,22.5*
%
%ADD10C,0.0178*%
%ADD11R,0.2127X0.2127*%
%ADD12R,0.0690X0.0520*%
%ADD13R,0.0720X0.0060*%
%ADD14R,0.0257X0.1044*%
%ADD15R,0.0847X0.1044*%
%ADD16C,0.0414*%
%ADD17R,0.0414X0.0375*%
%ADD18C,0.0540*%
%ADD19R,0.1399X0.0808*%
%ADD20R,0.0639X0.0560*%
%ADD21R,0.0560X0.0639*%
%ADD22R,0.0800X0.0800*%
%ADD23OC8,0.0800*%
%ADD24R,0.0360X0.0360*%
%ADD25C,0.0820*%
%ADD26R,0.0493X0.0178*%
%ADD27R,0.1084X0.0788*%
%ADD28R,0.0850X0.0650*%
%ADD29R,0.0850X0.1560*%
%ADD30R,0.0320X0.0860*%
%ADD31R,0.0651X0.0336*%
%ADD32R,0.0611X0.0769*%
%ADD33R,0.0808X0.0611*%
%ADD34C,0.0760*%
%ADD35C,0.1241*%
%ADD36OC8,0.0540*%
%ADD37R,0.0300X0.0930*%
%ADD38OC8,0.0690*%
%ADD39C,0.0690*%
%ADD40R,0.1910X0.0749*%
%ADD41R,0.0690X0.1123*%
%ADD42R,0.0375X0.0532*%
%ADD43R,0.0178X0.0690*%
%ADD44R,0.2099X0.1280*%
%ADD45C,0.0920*%
%ADD46R,0.1123X0.0769*%
%ADD47C,0.0847*%
%ADD48R,0.0611X0.0611*%
%ADD49C,0.0316*%
D10*
X022251Y007696D02*
X022545Y007696D01*
X022545Y007893D02*
X022251Y007893D01*
X022251Y008089D02*
X022545Y008089D01*
X022545Y008286D02*
X022251Y008286D01*
X022251Y008483D02*
X022545Y008483D01*
X022545Y008680D02*
X022251Y008680D01*
X022251Y008877D02*
X022545Y008877D01*
X022545Y009074D02*
X022251Y009074D01*
X022251Y009271D02*
X022545Y009271D01*
X022545Y009467D02*
X022251Y009467D01*
X022251Y009664D02*
X022545Y009664D01*
X022753Y009872D02*
X022753Y010166D01*
X022949Y010166D02*
X022949Y009872D01*
X023146Y009872D02*
X023146Y010166D01*
X023343Y010166D02*
X023343Y009872D01*
X023540Y009872D02*
X023540Y010166D01*
X023737Y010166D02*
X023737Y009872D01*
X023934Y009872D02*
X023934Y010166D01*
X024131Y010166D02*
X024131Y009872D01*
X024327Y009872D02*
X024327Y010166D01*
X024524Y010166D02*
X024524Y009872D01*
X024721Y009872D02*
X024721Y010166D01*
X024928Y009664D02*
X025222Y009664D01*
X025222Y009467D02*
X024928Y009467D01*
X024928Y009271D02*
X025222Y009271D01*
X025222Y009074D02*
X024928Y009074D01*
X024928Y008877D02*
X025222Y008877D01*
X025222Y008680D02*
X024928Y008680D01*
X024928Y008483D02*
X025222Y008483D01*
X025222Y008286D02*
X024928Y008286D01*
X024928Y008089D02*
X025222Y008089D01*
X025222Y007893D02*
X024928Y007893D01*
X024928Y007696D02*
X025222Y007696D01*
X024721Y007488D02*
X024721Y007194D01*
X024524Y007194D02*
X024524Y007488D01*
X024327Y007488D02*
X024327Y007194D01*
X024131Y007194D02*
X024131Y007488D01*
X023934Y007488D02*
X023934Y007194D01*
X023737Y007194D02*
X023737Y007488D01*
X023540Y007488D02*
X023540Y007194D01*
X023343Y007194D02*
X023343Y007488D01*
X023146Y007488D02*
X023146Y007194D01*
X022949Y007194D02*
X022949Y007488D01*
X022753Y007488D02*
X022753Y007194D01*
D11*
X023737Y008680D03*
D12*
X026049Y005668D03*
X026049Y005068D03*
X029987Y016880D03*
X029987Y017480D03*
X031487Y017480D03*
X031487Y016880D03*
X038987Y016880D03*
X038987Y017480D03*
X040487Y017480D03*
X040487Y016880D03*
D13*
X040487Y017180D03*
X038987Y017180D03*
X031487Y017180D03*
X029987Y017180D03*
X026049Y005368D03*
D14*
X008867Y025696D03*
X008552Y025696D03*
X008237Y025696D03*
X007922Y025696D03*
X007607Y025696D03*
D15*
X006465Y025696D03*
X006465Y027861D03*
X010009Y027861D03*
X010009Y025696D03*
D16*
X009103Y026680D03*
X007371Y026680D03*
D17*
X009381Y023554D03*
X009381Y022806D03*
X008554Y023180D03*
D18*
X019987Y009930D03*
X019987Y007930D03*
D19*
X011737Y026162D03*
X011737Y027698D03*
D20*
X010924Y012776D03*
X010924Y011084D03*
X006237Y008026D03*
X006237Y006334D03*
D21*
X013265Y016180D03*
X014958Y016180D03*
D22*
X003237Y008180D03*
D23*
X004237Y008180D03*
X004237Y007180D03*
X003237Y007180D03*
X003237Y006180D03*
X004237Y006180D03*
D24*
X005437Y005430D03*
X006037Y005430D03*
X011987Y003480D03*
X011987Y002880D03*
X011987Y002230D03*
X011987Y001630D03*
X012737Y001630D03*
X013487Y001630D03*
X013487Y002230D03*
X012737Y002230D03*
X012737Y002880D03*
X013487Y002880D03*
X013487Y003480D03*
X012737Y003480D03*
X014237Y003480D03*
X014237Y002880D03*
X014237Y002230D03*
X014237Y001630D03*
X014987Y001630D03*
X015737Y001630D03*
X015737Y002230D03*
X014987Y002230D03*
X014987Y002880D03*
X015737Y002880D03*
X015737Y003480D03*
X014987Y003480D03*
X016487Y003480D03*
X016487Y002880D03*
X016487Y002230D03*
X016487Y001630D03*
X018487Y007880D03*
X018487Y008480D03*
X018487Y009380D03*
X018487Y009980D03*
X021237Y010880D03*
X021237Y011480D03*
X022937Y013430D03*
X023537Y013430D03*
X023737Y015130D03*
X022987Y015130D03*
X022987Y015730D03*
X023737Y015730D03*
X022237Y015730D03*
X022237Y015130D03*
X025237Y015130D03*
X025862Y015130D03*
X025862Y015730D03*
X025237Y015730D03*
X025862Y016693D03*
X025862Y017293D03*
X024737Y017568D03*
X024737Y018168D03*
X023987Y018230D03*
X023987Y017630D03*
X027124Y014680D03*
X027724Y014680D03*
X028437Y014680D03*
X029037Y014680D03*
X029737Y014880D03*
X029737Y015480D03*
X030487Y015480D03*
X031237Y015480D03*
X031237Y014880D03*
X030487Y014880D03*
X030737Y016630D03*
X030737Y017230D03*
X032237Y017230D03*
X032237Y016630D03*
X032237Y017880D03*
X032237Y018480D03*
X034237Y017230D03*
X034987Y017230D03*
X034987Y016630D03*
X034237Y016630D03*
X034987Y016105D03*
X034987Y015505D03*
X034987Y014730D03*
X034987Y014130D03*
X035737Y014130D03*
X035737Y014730D03*
X036487Y014730D03*
X036487Y014130D03*
X037362Y014130D03*
X038112Y014130D03*
X038112Y014730D03*
X037362Y014730D03*
X038987Y014980D03*
X038987Y014380D03*
X039737Y014380D03*
X040487Y014380D03*
X040487Y014980D03*
X039737Y014980D03*
X041487Y014980D03*
X041487Y014380D03*
X041237Y016630D03*
X041237Y017230D03*
X039737Y017230D03*
X039737Y016630D03*
X037487Y022161D03*
X037487Y022761D03*
X038112Y023068D03*
X038112Y023668D03*
X039487Y023880D03*
X039487Y024480D03*
X040187Y024680D03*
X040787Y024680D03*
X036737Y022855D03*
X036737Y022255D03*
X035424Y022380D03*
X034862Y022380D03*
X034237Y022380D03*
X034237Y022980D03*
X034862Y022980D03*
X035424Y022980D03*
X034037Y024430D03*
X033437Y024430D03*
X032037Y024680D03*
X031437Y024680D03*
X030737Y024730D03*
X030737Y024130D03*
X029162Y024180D03*
X028562Y024180D03*
X028737Y023105D03*
X028112Y022730D03*
X028737Y022505D03*
X028112Y022130D03*
X026862Y022380D03*
X026862Y022980D03*
X025537Y022180D03*
X024937Y022180D03*
X024237Y022005D03*
X024237Y022605D03*
X026437Y024180D03*
X027037Y024180D03*
X019987Y026380D03*
X019987Y026980D03*
X018037Y025430D03*
X017437Y025430D03*
X016787Y025430D03*
X016187Y025430D03*
X011162Y022180D03*
X010562Y022180D03*
X009349Y022180D03*
X008749Y022180D03*
X006787Y022680D03*
X006187Y022680D03*
X011362Y020980D03*
X011362Y020380D03*
X012737Y019480D03*
X012737Y018880D03*
X010487Y015730D03*
X010487Y015130D03*
X003662Y011868D03*
X003062Y011868D03*
X002474Y011868D03*
X001874Y011868D03*
X026437Y007180D03*
X027037Y007180D03*
X027187Y010430D03*
X027787Y010430D03*
X027787Y011180D03*
X027187Y011180D03*
D25*
X004737Y001680D03*
X004737Y002680D03*
X004737Y003680D03*
X004737Y004680D03*
X039237Y004180D03*
X039237Y003180D03*
X039237Y005180D03*
X039237Y006180D03*
X033987Y027430D03*
X032987Y027430D03*
X031987Y027430D03*
D26*
X040404Y004975D03*
X040404Y004778D03*
X040404Y004582D03*
X040404Y004385D03*
D27*
X041408Y003656D03*
X041408Y005704D03*
D28*
X004977Y009353D03*
X004977Y010253D03*
X004977Y011153D03*
D29*
X002497Y010243D03*
D30*
X002737Y012970D03*
X003237Y012970D03*
X003737Y012970D03*
X004237Y012970D03*
X004737Y012970D03*
X005237Y012970D03*
X005737Y012970D03*
X005737Y015390D03*
X005237Y015390D03*
X004737Y015390D03*
X004237Y015390D03*
X003737Y015390D03*
X003237Y015390D03*
X002737Y015390D03*
X002237Y015390D03*
X002237Y012970D03*
X019987Y019376D03*
X020487Y019376D03*
X020987Y019376D03*
X021487Y019376D03*
X021987Y019376D03*
X022487Y019376D03*
X022987Y019376D03*
X023487Y019376D03*
X023487Y021796D03*
X022987Y021796D03*
X022487Y021796D03*
X021987Y021796D03*
X021487Y021796D03*
X020987Y021796D03*
X020487Y021796D03*
X019987Y021796D03*
D31*
X004205Y019070D03*
X004048Y018637D03*
X004048Y019503D03*
X003890Y019936D03*
X004048Y020369D03*
X003890Y020802D03*
X004048Y021235D03*
X004048Y021668D03*
D32*
X008064Y021393D03*
X008064Y019030D03*
D33*
X002906Y022023D03*
X002552Y016826D03*
D34*
X010235Y023583D02*
X010235Y024283D01*
X011235Y024283D02*
X011235Y023583D01*
X012235Y023583D02*
X012235Y024283D01*
X013235Y024283D02*
X013235Y023583D01*
X014235Y023583D02*
X014235Y024283D01*
X015235Y024283D02*
X015235Y023583D01*
X016235Y023583D02*
X016235Y024283D01*
X017235Y024283D02*
X017235Y023583D01*
X018235Y023583D02*
X018235Y024283D01*
X019235Y024283D02*
X019235Y023583D01*
X020235Y023583D02*
X020235Y024283D01*
X021235Y024283D02*
X021235Y023583D01*
X022235Y023583D02*
X022235Y024283D01*
X023235Y024283D02*
X023235Y023583D01*
X024235Y023583D02*
X024235Y024283D01*
X025235Y024283D02*
X025235Y023583D01*
D35*
X007287Y023930D03*
X007287Y002275D03*
X043902Y002275D03*
X043897Y023930D03*
D36*
X037977Y016930D03*
X036987Y015930D03*
X035997Y016930D03*
X028727Y016930D03*
X027737Y015930D03*
X026747Y016930D03*
X009987Y003930D03*
X010977Y002930D03*
X008997Y002930D03*
D37*
X009237Y018900D03*
X009737Y018900D03*
X010237Y018900D03*
X010737Y018900D03*
X010737Y020960D03*
X010237Y020960D03*
X009737Y020960D03*
X009237Y020960D03*
D38*
X008237Y014868D03*
X032487Y023180D03*
X041487Y023180D03*
D39*
X040487Y023180D03*
X031487Y023180D03*
X008237Y015868D03*
D40*
X008487Y013180D03*
X008487Y010798D03*
D41*
X007288Y009430D03*
X006186Y009430D03*
X008936Y017180D03*
X010038Y017180D03*
D42*
X006591Y010680D03*
X005883Y010680D03*
D43*
X026823Y019078D03*
X027079Y019078D03*
X027335Y019078D03*
X027591Y019078D03*
X027847Y019078D03*
X028103Y019078D03*
X028359Y019078D03*
X028615Y019078D03*
X028871Y019078D03*
X029127Y019078D03*
X029383Y019078D03*
X029638Y019078D03*
X029894Y019078D03*
X030150Y019078D03*
X030150Y021282D03*
X029894Y021282D03*
X029638Y021282D03*
X029383Y021282D03*
X029127Y021282D03*
X028871Y021282D03*
X028615Y021282D03*
X028359Y021282D03*
X028103Y021282D03*
X027847Y021282D03*
X027591Y021282D03*
X027335Y021282D03*
X027079Y021282D03*
X026823Y021282D03*
X035823Y021282D03*
X036079Y021282D03*
X036335Y021282D03*
X036591Y021282D03*
X036847Y021282D03*
X037103Y021282D03*
X037359Y021282D03*
X037615Y021282D03*
X037871Y021282D03*
X038127Y021282D03*
X038383Y021282D03*
X038638Y021282D03*
X038894Y021282D03*
X039150Y021282D03*
X039150Y019078D03*
X038894Y019078D03*
X038638Y019078D03*
X038383Y019078D03*
X038127Y019078D03*
X037871Y019078D03*
X037615Y019078D03*
X037359Y019078D03*
X037103Y019078D03*
X036847Y019078D03*
X036591Y019078D03*
X036335Y019078D03*
X036079Y019078D03*
X035823Y019078D03*
D44*
X037487Y020180D03*
X028487Y020180D03*
D45*
X028987Y027430D03*
X029987Y027430D03*
X027987Y027430D03*
X026987Y027430D03*
X024987Y027430D03*
X023987Y027430D03*
X022987Y027430D03*
X021987Y027430D03*
X020987Y027430D03*
X018987Y027430D03*
X017987Y027430D03*
X016987Y027430D03*
X015987Y027430D03*
X014987Y027430D03*
X013987Y027430D03*
X035987Y027430D03*
X036987Y027430D03*
X037987Y027430D03*
X038987Y027430D03*
D46*
X041237Y021046D03*
X041237Y019314D03*
X033737Y019314D03*
X032237Y019314D03*
X032237Y021046D03*
X033737Y021046D03*
X024737Y021046D03*
X024737Y019314D03*
D47*
X004381Y023280D02*
X003593Y023280D01*
X002087Y024086D02*
X002087Y024874D01*
X003593Y025680D02*
X004381Y025680D01*
D48*
X002237Y005237D03*
X002237Y003623D03*
D49*
X002591Y004430D03*
X001883Y004430D03*
M02*
