%
M48
M72
T01C0.0157
T02C0.0256
T03C0.0320
T04C0.0354
T05C0.0394
T06C0.0400
T07C0.0433
T08C0.1181
%
T01
X6737Y3930
X6737Y5430
X11237Y3930
X12362Y2555
X11518Y2024
X9487Y2180
X14487Y4430
X14987Y3930
X15737Y3930
X16487Y3930
X16487Y5430
X17237Y5430
X18237Y5930
X19987Y4930
X21737Y5930
X22237Y4930
X23987Y4930
X25237Y4930
X24987Y5680
X24487Y6180
X25487Y7430
X22737Y6680
X21487Y9430
X19362Y10930
X19487Y11680
X19237Y12430
X18237Y12430
X17737Y11680
X16987Y12930
X16487Y14180
X14237Y13680
X13737Y13180
X13237Y13680
X10987Y13680
X10237Y13805
X7487Y15430
X6143Y14586
X5112Y13805
X4237Y14180
X4487Y14680
X2737Y14680
X3737Y16430
X2612Y17555
X3737Y17680
X7487Y17930
X7487Y18680
X9237Y19680
X9674Y20086
X10237Y20243
X11987Y19930
X12237Y19180
X12487Y18430
X11737Y17430
X10737Y17211
X10737Y18180
X9737Y18180
X11737Y15868
X14237Y17680
X13987Y18430
X14987Y18430
X16487Y17180
X16737Y16180
X18237Y16180
X18237Y16930
X17737Y18180
X19237Y19930
X20549Y20618
X21237Y20680
X21737Y20930
X22237Y20930
X22862Y20180
X23362Y20680
X25737Y20430
X26237Y20180
X26674Y20118
X26862Y19743
X27174Y20055
X26987Y20555
X26237Y20680
X26237Y21180
X25737Y21430
X25737Y20930
X26237Y21680
X25987Y22680
X27299Y22993
X27112Y23680
X27581Y23836
X28393Y23680
X28862Y23555
X29487Y23180
X30237Y21930
X30737Y21680
X31237Y21430
X31237Y20930
X30737Y20680
X30737Y21180
X31237Y20430
X30737Y20180
X31237Y19930
X31237Y19430
X30737Y19180
X30737Y19680
X30112Y19774
X29768Y20055
X29987Y20555
X28549Y21930
X25737Y19930
X25737Y19430
X26237Y19180
X26237Y19680
X25737Y18930
X26237Y18680
X27299Y18180
X29237Y18180
X30737Y18680
X31237Y18930
X33237Y17555
X31487Y16368
X30299Y16305
X31674Y15055
X34237Y15180
X34237Y15930
X35424Y16118
X36362Y15805
X36924Y14743
X39237Y16180
X40487Y16243
X41237Y15805
X40924Y14930
X42487Y15805
X38383Y18003
X38002Y18228
X39737Y18680
X40237Y18930
X39737Y19180
X39737Y19680
X40237Y19930
X40237Y19430
X39737Y20180
X39299Y20055
X38987Y19743
X38799Y20118
X39112Y20555
X39737Y20680
X39737Y21180
X40237Y21430
X40237Y20930
X40237Y20430
X39737Y21680
X37174Y23180
X37487Y23680
X37737Y24180
X36487Y25430
X35487Y25430
X35424Y23618
X33987Y23618
X32987Y24430
X29581Y24805
X29487Y25430
X28487Y25430
X27487Y25430
X27487Y24930
X26487Y25118
X25987Y25430
X24987Y24930
X24487Y25430
X23487Y26430
X22737Y24930
X23487Y22555
X19487Y22430
X15112Y25180
X13737Y25180
X12737Y25680
X13237Y26930
X10737Y25430
X11737Y22680
X13487Y21680
X13487Y20930
X12237Y20930
X14487Y20430
X9987Y22180
X7987Y22180
X6987Y20680
X7737Y20430
X6237Y24430
X16737Y25930
X17987Y25930
X18487Y25430
X19987Y27680
X33237Y21930
X34737Y21430
X34737Y20930
X35237Y20680
X35237Y21180
X35237Y21680
X35862Y20555
X35674Y20055
X35987Y19743
X36174Y20118
X35237Y20180
X34737Y19930
X34737Y19430
X35237Y19180
X35237Y19680
X34737Y18930
X35237Y18680
X36237Y17680
X34737Y20430
X24237Y15055
X22831Y14180
X21487Y13680
X21487Y12930
X22487Y12680
X21487Y12180
X22487Y11930
X22362Y11305
X24237Y12180
X24237Y12930
X25237Y13430
X25987Y13430
X26487Y13430
X28737Y12930
X30487Y12930
X28737Y10680
X28237Y9430
X27612Y9430
X26487Y9930
X25487Y9930
X24737Y10680
X26112Y11055
X26737Y11180
X30987Y9180
X28237Y4930
X28237Y3930
X17612Y10180
X18987Y13180
X21237Y14680
X21612Y15524
X22487Y16430
X21987Y16930
X20737Y17430
X20737Y18180
X22987Y18430
X23487Y17743
X23487Y16430
X10487Y10430
X8487Y12055
X1956Y8180
X14987Y6430
X15112Y5930
X15737Y5430
T02
X2591Y4430
X1883Y4430
T03
X8997Y2930
X9987Y3930
X10977Y2930
X19987Y7930
X19987Y9930
X27737Y15930
X28727Y16930
X26747Y16930
X35997Y16930
X36987Y15930
X37977Y16930
X40487Y23180
X41487Y23180
X32487Y23180
X31487Y23180
X8237Y15868
X8237Y14868
T04
X4737Y1680
X4737Y2680
X4737Y3680
X4737Y4680
X7371Y26680
X9103Y26680
X39237Y6180
X39237Y5180
X39237Y4180
X39237Y3180
T05
X3987Y23280
X2087Y24480
X3987Y25680
X31987Y27430
X32987Y27430
X33987Y27430
T06
X25235Y23933
X24235Y23933
X23235Y23933
X22235Y23933
X21235Y23933
X20235Y23933
X19235Y23933
X18235Y23933
X17235Y23933
X16235Y23933
X15235Y23933
X14235Y23933
X13235Y23933
X12235Y23933
X11235Y23933
X10235Y23933
X4237Y8180
X4237Y7180
X3237Y7180
X3237Y8180
X3237Y6180
X4237Y6180
T07
X13987Y27430
X14987Y27430
X15987Y27430
X16987Y27430
X17987Y27430
X18987Y27430
X20987Y27430
X21987Y27430
X22987Y27430
X23987Y27430
X24987Y27430
X26987Y27430
X27987Y27430
X28987Y27430
X29987Y27430
X35987Y27430
X36987Y27430
X37987Y27430
X38987Y27430
T08
X43897Y23930
X43902Y2275
X7287Y2275
X7287Y23930
M30
