G75*
G70*
%OFA0B0*%
%FSLAX24Y24*%
%IPPOS*%
%LPD*%
%AMOC8*
5,1,8,0,0,1.08239X$1,22.5*
%
%ADD10C,0.0118*%
%ADD11R,0.2067X0.2067*%
%ADD12R,0.0630X0.0460*%
%ADD13R,0.0197X0.0984*%
%ADD14R,0.0787X0.0984*%
%ADD15R,0.0354X0.0315*%
%ADD16R,0.1339X0.0748*%
%ADD17R,0.0579X0.0500*%
%ADD18R,0.0500X0.0579*%
%ADD19R,0.0300X0.0300*%
%ADD20R,0.0433X0.0118*%
%ADD21R,0.1024X0.0728*%
%ADD22R,0.0790X0.0590*%
%ADD23R,0.0790X0.1500*%
%ADD24R,0.0260X0.0800*%
%ADD25R,0.0591X0.0276*%
%ADD26R,0.0551X0.0709*%
%ADD27R,0.0748X0.0551*%
%ADD28R,0.0240X0.0870*%
%ADD29R,0.1850X0.0689*%
%ADD30R,0.0630X0.1063*%
%ADD31R,0.0315X0.0472*%
%ADD32R,0.0118X0.0630*%
%ADD33R,0.2039X0.1220*%
%ADD34R,0.1063X0.0709*%
D10*
X022251Y007696D02*
X022545Y007696D01*
X022545Y007893D02*
X022251Y007893D01*
X022251Y008089D02*
X022545Y008089D01*
X022545Y008286D02*
X022251Y008286D01*
X022251Y008483D02*
X022545Y008483D01*
X022545Y008680D02*
X022251Y008680D01*
X022251Y008877D02*
X022545Y008877D01*
X022545Y009074D02*
X022251Y009074D01*
X022251Y009271D02*
X022545Y009271D01*
X022545Y009467D02*
X022251Y009467D01*
X022251Y009664D02*
X022545Y009664D01*
X022753Y009872D02*
X022753Y010166D01*
X022949Y010166D02*
X022949Y009872D01*
X023146Y009872D02*
X023146Y010166D01*
X023343Y010166D02*
X023343Y009872D01*
X023540Y009872D02*
X023540Y010166D01*
X023737Y010166D02*
X023737Y009872D01*
X023934Y009872D02*
X023934Y010166D01*
X024131Y010166D02*
X024131Y009872D01*
X024327Y009872D02*
X024327Y010166D01*
X024524Y010166D02*
X024524Y009872D01*
X024721Y009872D02*
X024721Y010166D01*
X024928Y009664D02*
X025222Y009664D01*
X025222Y009467D02*
X024928Y009467D01*
X024928Y009271D02*
X025222Y009271D01*
X025222Y009074D02*
X024928Y009074D01*
X024928Y008877D02*
X025222Y008877D01*
X025222Y008680D02*
X024928Y008680D01*
X024928Y008483D02*
X025222Y008483D01*
X025222Y008286D02*
X024928Y008286D01*
X024928Y008089D02*
X025222Y008089D01*
X025222Y007893D02*
X024928Y007893D01*
X024928Y007696D02*
X025222Y007696D01*
X024721Y007488D02*
X024721Y007194D01*
X024524Y007194D02*
X024524Y007488D01*
X024327Y007488D02*
X024327Y007194D01*
X024131Y007194D02*
X024131Y007488D01*
X023934Y007488D02*
X023934Y007194D01*
X023737Y007194D02*
X023737Y007488D01*
X023540Y007488D02*
X023540Y007194D01*
X023343Y007194D02*
X023343Y007488D01*
X023146Y007488D02*
X023146Y007194D01*
X022949Y007194D02*
X022949Y007488D01*
X022753Y007488D02*
X022753Y007194D01*
D11*
X023737Y008680D03*
D12*
X026049Y005668D03*
X026049Y005068D03*
X029987Y016880D03*
X029987Y017480D03*
X031487Y017480D03*
X031487Y016880D03*
X038987Y016880D03*
X038987Y017480D03*
X040487Y017480D03*
X040487Y016880D03*
D13*
X008867Y025696D03*
X008552Y025696D03*
X008237Y025696D03*
X007922Y025696D03*
X007607Y025696D03*
D14*
X006465Y025696D03*
X006465Y027861D03*
X010009Y027861D03*
X010009Y025696D03*
D15*
X009381Y023554D03*
X009381Y022806D03*
X008554Y023180D03*
D16*
X011737Y026162D03*
X011737Y027698D03*
D17*
X010924Y012776D03*
X010924Y011084D03*
X006237Y008026D03*
X006237Y006334D03*
D18*
X013265Y016180D03*
X014958Y016180D03*
D19*
X005437Y005430D03*
X006037Y005430D03*
X011987Y003480D03*
X011987Y002880D03*
X011987Y002230D03*
X011987Y001630D03*
X012737Y001630D03*
X013487Y001630D03*
X013487Y002230D03*
X012737Y002230D03*
X012737Y002880D03*
X013487Y002880D03*
X013487Y003480D03*
X012737Y003480D03*
X014237Y003480D03*
X014237Y002880D03*
X014237Y002230D03*
X014237Y001630D03*
X014987Y001630D03*
X015737Y001630D03*
X015737Y002230D03*
X014987Y002230D03*
X014987Y002880D03*
X015737Y002880D03*
X015737Y003480D03*
X014987Y003480D03*
X016487Y003480D03*
X016487Y002880D03*
X016487Y002230D03*
X016487Y001630D03*
X018487Y007880D03*
X018487Y008480D03*
X018487Y009380D03*
X018487Y009980D03*
X021237Y010880D03*
X021237Y011480D03*
X022937Y013430D03*
X023537Y013430D03*
X023737Y015130D03*
X022987Y015130D03*
X022987Y015730D03*
X023737Y015730D03*
X022237Y015730D03*
X022237Y015130D03*
X025237Y015130D03*
X025862Y015130D03*
X025862Y015730D03*
X025237Y015730D03*
X025862Y016693D03*
X025862Y017293D03*
X024737Y017568D03*
X024737Y018168D03*
X023987Y018230D03*
X023987Y017630D03*
X027124Y014680D03*
X027724Y014680D03*
X028437Y014680D03*
X029037Y014680D03*
X029737Y014880D03*
X029737Y015480D03*
X030487Y015480D03*
X031237Y015480D03*
X031237Y014880D03*
X030487Y014880D03*
X030737Y016630D03*
X030737Y017230D03*
X032237Y017230D03*
X032237Y016630D03*
X032237Y017880D03*
X032237Y018480D03*
X034237Y017230D03*
X034987Y017230D03*
X034987Y016630D03*
X034237Y016630D03*
X034987Y016105D03*
X034987Y015505D03*
X034987Y014730D03*
X034987Y014130D03*
X035737Y014130D03*
X035737Y014730D03*
X036487Y014730D03*
X036487Y014130D03*
X037362Y014130D03*
X038112Y014130D03*
X038112Y014730D03*
X037362Y014730D03*
X038987Y014980D03*
X038987Y014380D03*
X039737Y014380D03*
X040487Y014380D03*
X040487Y014980D03*
X039737Y014980D03*
X041487Y014980D03*
X041487Y014380D03*
X041237Y016630D03*
X041237Y017230D03*
X039737Y017230D03*
X039737Y016630D03*
X037487Y022161D03*
X037487Y022761D03*
X038112Y023068D03*
X038112Y023668D03*
X039487Y023880D03*
X039487Y024480D03*
X040187Y024680D03*
X040787Y024680D03*
X036737Y022855D03*
X036737Y022255D03*
X035424Y022380D03*
X034862Y022380D03*
X034237Y022380D03*
X034237Y022980D03*
X034862Y022980D03*
X035424Y022980D03*
X034037Y024430D03*
X033437Y024430D03*
X032037Y024680D03*
X031437Y024680D03*
X030737Y024730D03*
X030737Y024130D03*
X029162Y024180D03*
X028562Y024180D03*
X028737Y023105D03*
X028112Y022730D03*
X028737Y022505D03*
X028112Y022130D03*
X026862Y022380D03*
X026862Y022980D03*
X025537Y022180D03*
X024937Y022180D03*
X024237Y022005D03*
X024237Y022605D03*
X026437Y024180D03*
X027037Y024180D03*
X019987Y026380D03*
X019987Y026980D03*
X018037Y025430D03*
X017437Y025430D03*
X016787Y025430D03*
X016187Y025430D03*
X011162Y022180D03*
X010562Y022180D03*
X009349Y022180D03*
X008749Y022180D03*
X006787Y022680D03*
X006187Y022680D03*
X011362Y020980D03*
X011362Y020380D03*
X012737Y019480D03*
X012737Y018880D03*
X010487Y015730D03*
X010487Y015130D03*
X003662Y011868D03*
X003062Y011868D03*
X002474Y011868D03*
X001874Y011868D03*
X026437Y007180D03*
X027037Y007180D03*
X027187Y010430D03*
X027787Y010430D03*
X027787Y011180D03*
X027187Y011180D03*
D20*
X040404Y004975D03*
X040404Y004778D03*
X040404Y004582D03*
X040404Y004385D03*
D21*
X041408Y003656D03*
X041408Y005704D03*
D22*
X004977Y009353D03*
X004977Y010253D03*
X004977Y011153D03*
D23*
X002497Y010243D03*
D24*
X002737Y012970D03*
X003237Y012970D03*
X003737Y012970D03*
X004237Y012970D03*
X004737Y012970D03*
X005237Y012970D03*
X005737Y012970D03*
X005737Y015390D03*
X005237Y015390D03*
X004737Y015390D03*
X004237Y015390D03*
X003737Y015390D03*
X003237Y015390D03*
X002737Y015390D03*
X002237Y015390D03*
X002237Y012970D03*
X019987Y019376D03*
X020487Y019376D03*
X020987Y019376D03*
X021487Y019376D03*
X021987Y019376D03*
X022487Y019376D03*
X022987Y019376D03*
X023487Y019376D03*
X023487Y021796D03*
X022987Y021796D03*
X022487Y021796D03*
X021987Y021796D03*
X021487Y021796D03*
X020987Y021796D03*
X020487Y021796D03*
X019987Y021796D03*
D25*
X004205Y019070D03*
X004048Y018637D03*
X004048Y019503D03*
X003890Y019936D03*
X004048Y020369D03*
X003890Y020802D03*
X004048Y021235D03*
X004048Y021668D03*
D26*
X008064Y021393D03*
X008064Y019030D03*
D27*
X002906Y022023D03*
X002552Y016826D03*
D28*
X009237Y018900D03*
X009737Y018900D03*
X010237Y018900D03*
X010737Y018900D03*
X010737Y020960D03*
X010237Y020960D03*
X009737Y020960D03*
X009237Y020960D03*
D29*
X008487Y013180D03*
X008487Y010798D03*
D30*
X007288Y009430D03*
X006186Y009430D03*
X008936Y017180D03*
X010038Y017180D03*
D31*
X006591Y010680D03*
X005883Y010680D03*
D32*
X026823Y019078D03*
X027079Y019078D03*
X027335Y019078D03*
X027591Y019078D03*
X027847Y019078D03*
X028103Y019078D03*
X028359Y019078D03*
X028615Y019078D03*
X028871Y019078D03*
X029127Y019078D03*
X029383Y019078D03*
X029638Y019078D03*
X029894Y019078D03*
X030150Y019078D03*
X030150Y021282D03*
X029894Y021282D03*
X029638Y021282D03*
X029383Y021282D03*
X029127Y021282D03*
X028871Y021282D03*
X028615Y021282D03*
X028359Y021282D03*
X028103Y021282D03*
X027847Y021282D03*
X027591Y021282D03*
X027335Y021282D03*
X027079Y021282D03*
X026823Y021282D03*
X035823Y021282D03*
X036079Y021282D03*
X036335Y021282D03*
X036591Y021282D03*
X036847Y021282D03*
X037103Y021282D03*
X037359Y021282D03*
X037615Y021282D03*
X037871Y021282D03*
X038127Y021282D03*
X038383Y021282D03*
X038638Y021282D03*
X038894Y021282D03*
X039150Y021282D03*
X039150Y019078D03*
X038894Y019078D03*
X038638Y019078D03*
X038383Y019078D03*
X038127Y019078D03*
X037871Y019078D03*
X037615Y019078D03*
X037359Y019078D03*
X037103Y019078D03*
X036847Y019078D03*
X036591Y019078D03*
X036335Y019078D03*
X036079Y019078D03*
X035823Y019078D03*
D33*
X037487Y020180D03*
X028487Y020180D03*
D34*
X032237Y019314D03*
X033737Y019314D03*
X033737Y021046D03*
X032237Y021046D03*
X024737Y021046D03*
X024737Y019314D03*
X041237Y019314D03*
X041237Y021046D03*
M02*
