G75*
G70*
%OFA0B0*%
%FSLAX24Y24*%
%IPPOS*%
%LPD*%
%AMOC8*
5,1,8,0,0,1.08239X$1,22.5*
%
%ADD10C,0.0000*%
D10*
X003551Y023075D02*
X004417Y023075D01*
X004614Y023272D02*
X004612Y023298D01*
X004607Y023323D01*
X004599Y023347D01*
X004588Y023370D01*
X004573Y023392D01*
X004556Y023411D01*
X004537Y023428D01*
X004516Y023443D01*
X004492Y023454D01*
X004468Y023462D01*
X004443Y023467D01*
X004417Y023469D01*
X003551Y023469D01*
X003525Y023467D01*
X003500Y023462D01*
X003476Y023454D01*
X003452Y023443D01*
X003431Y023428D01*
X003412Y023411D01*
X003395Y023392D01*
X003380Y023371D01*
X003369Y023347D01*
X003361Y023323D01*
X003356Y023298D01*
X003354Y023272D01*
X004614Y023272D01*
X004612Y023246D01*
X004607Y023221D01*
X004599Y023197D01*
X004588Y023173D01*
X004573Y023152D01*
X004556Y023133D01*
X004537Y023116D01*
X004515Y023101D01*
X004492Y023090D01*
X004468Y023082D01*
X004443Y023077D01*
X004417Y023075D01*
X003551Y023075D02*
X003525Y023077D01*
X003500Y023082D01*
X003476Y023090D01*
X003452Y023101D01*
X003431Y023116D01*
X003412Y023133D01*
X003395Y023152D01*
X003380Y023174D01*
X003369Y023197D01*
X003361Y023221D01*
X003356Y023246D01*
X003354Y023272D01*
X002287Y024032D02*
X002287Y024899D01*
X002285Y024925D01*
X002280Y024950D01*
X002272Y024974D01*
X002261Y024997D01*
X002246Y025019D01*
X002229Y025038D01*
X002210Y025055D01*
X002189Y025070D01*
X002165Y025081D01*
X002141Y025089D01*
X002116Y025094D01*
X002090Y025096D01*
X002064Y025094D01*
X002039Y025089D01*
X002015Y025081D01*
X001991Y025070D01*
X001970Y025055D01*
X001951Y025038D01*
X001934Y025019D01*
X001919Y024998D01*
X001908Y024974D01*
X001900Y024950D01*
X001895Y024925D01*
X001893Y024899D01*
X001893Y024032D01*
X002090Y023835D02*
X002116Y023837D01*
X002141Y023842D01*
X002165Y023850D01*
X002188Y023861D01*
X002210Y023876D01*
X002229Y023893D01*
X002246Y023912D01*
X002261Y023933D01*
X002272Y023957D01*
X002280Y023981D01*
X002285Y024006D01*
X002287Y024032D01*
X002090Y023835D02*
X002064Y023837D01*
X002039Y023842D01*
X002015Y023850D01*
X001991Y023861D01*
X001970Y023876D01*
X001951Y023893D01*
X001934Y023912D01*
X001919Y023934D01*
X001908Y023957D01*
X001900Y023981D01*
X001895Y024006D01*
X001893Y024032D01*
X003551Y025480D02*
X004417Y025480D01*
X004614Y025677D02*
X004612Y025703D01*
X004607Y025728D01*
X004599Y025752D01*
X004588Y025775D01*
X004573Y025797D01*
X004556Y025816D01*
X004537Y025833D01*
X004516Y025848D01*
X004492Y025859D01*
X004468Y025867D01*
X004443Y025872D01*
X004417Y025874D01*
X003551Y025874D01*
X003525Y025872D01*
X003500Y025867D01*
X003476Y025859D01*
X003452Y025848D01*
X003431Y025833D01*
X003412Y025816D01*
X003395Y025797D01*
X003380Y025776D01*
X003369Y025752D01*
X003361Y025728D01*
X003356Y025703D01*
X003354Y025677D01*
X003356Y025651D01*
X003361Y025626D01*
X003369Y025602D01*
X003380Y025579D01*
X003395Y025557D01*
X003412Y025538D01*
X003431Y025521D01*
X003452Y025506D01*
X003476Y025495D01*
X003500Y025487D01*
X003525Y025482D01*
X003551Y025480D01*
X004417Y025480D02*
X004443Y025482D01*
X004468Y025487D01*
X004492Y025495D01*
X004515Y025506D01*
X004537Y025521D01*
X004556Y025538D01*
X004573Y025557D01*
X004588Y025578D01*
X004599Y025602D01*
X004607Y025626D01*
X004612Y025651D01*
X004614Y025677D01*
M02*
